<svg width="32" height="32" viewBox="0 0 32 32" fill="none" xmlns="http://www.w3.org/2000/svg">
  <rect width="32" height="32" rx="7" fill="#F6EFE4"/>
  <circle cx="16" cy="13.5" r="5.4" fill="#FFFAF1" stroke="#1F1A14" stroke-width="0.8"/>
  <path d="M9 13.2 C9 9.3 12 7.4 16 7.4 C20 7.4 23 9.3 23 13.2 C23 15.3 22.2 16.7 20.8 18.1 C19.8 19.1 18.6 19.9 16 20.2 C13.4 19.9 12.2 19.1 11.2 18.1 C9.8 16.7 9 15.3 9 13.2 Z" fill="#F8ECDA" stroke="#1F1A14" stroke-width="0.8"/>
  <path d="M9.2 13.5 C9.2 16.9 11.7 19.6 16 20.2 C20.3 19.6 22.8 16.9 22.8 13.5" stroke="#1F1A14" stroke-width="0.8" fill="none"/>
  <path d="M12.4 11.8 C13.6 10.3 15 9.8 16 9.8 C17 9.8 18.4 10.3 19.6 11.8" stroke="#2F8F83" stroke-width="0.8" stroke-linecap="round"/>
  <path d="M11.2 22.5 C11.2 19.8 13.2 18 16 18 C18.8 18 20.8 19.8 20.8 22.5" stroke="#1F1A14" stroke-width="0.8" fill="none" stroke-linecap="round"/>
  <path d="M10.6 24.4 C12.2 23.1 14 22.5 16 22.5 C18 22.5 19.8 23.1 21.4 24.4" stroke="#463E35" stroke-width="0.8" fill="none" stroke-linecap="round"/>
</svg>
