<svg width="32" height="32" viewBox="0 0 32 32" fill="none" xmlns="http://www.w3.org/2000/svg">
  <rect width="32" height="32" rx="6" fill="#F6EFE4"/>
  <circle cx="16" cy="14" r="6.3" fill="#FFFAF1" stroke="#1F1A14" stroke-width="1.4"/>
  <path d="M7.2 13 C7.2 8.6 11.2 6 16 6 C20.8 6 24.8 8.6 24.8 13 C24.8 15.8 23.4 17.8 21.2 19.7 C19.6 21.1 18 21.8 16 22.1 C14 21.8 12.4 21.1 10.8 19.7 C8.6 17.8 7.2 15.8 7.2 13 Z" fill="#F8ECDA" stroke="#1F1A14" stroke-width="1.4"/>
  <path d="M9 14.4 H14.1 L15.4 13.4 L16.6 13.4 H23" stroke="#1F1A14" stroke-width="1.4" stroke-linecap="round" stroke-linejoin="round"/>
  <path d="M23 14.4 H17.9 L16.6 13.4" stroke="#1F1A14" stroke-width="1.4" stroke-linecap="round" stroke-linejoin="round"/>
  <path d="M9.2 14.4 C10 12.6 11.6 12 13.5 12.4 C14.6 12.7 15.3 13.5 15.3 14.4 C15.3 15.5 14.4 16.4 13.3 16.4 H10.8 C9.7 16.4 8.8 15.5 9.2 14.4 Z" fill="#2F8F83" fill-opacity="0.2"/>
  <path d="M22.8 14.4 C23.2 15.5 22.3 16.4 21.2 16.4 H18.7 C17.6 16.4 16.7 15.5 16.7 14.4 C16.7 13.5 17.4 12.7 18.5 12.4 C20.4 12 22 12.6 22.8 14.4 Z" fill="#2F8F83" fill-opacity="0.2"/>
  <path d="M10.4 23 C10.4 20.1 12.8 18.1 16 18.1 C19.2 18.1 21.6 20.1 21.6 23" stroke="#1F1A14" stroke-width="1.4" fill="none" stroke-linecap="round"/>
</svg>
