<svg width="32" height="32" viewBox="0 0 32 32" fill="none" xmlns="http://www.w3.org/2000/svg">
  <rect width="32" height="32" rx="7" fill="#F6EFE4"/>
  <circle cx="16" cy="14.2" r="5.6" fill="#FFFAF1" stroke="#1F1A14" stroke-width="0.8"/>
  <path d="M8.6 13.4 C8.6 9.4 12.1 7.2 16 7.2 C19.9 7.2 23.4 9.4 23.4 13.4 C23.4 15.9 22.2 17.6 20.4 19.2 C19.1 20.3 17.8 20.8 16 21 C14.2 20.8 12.9 20.3 11.6 19.2 C9.8 17.6 8.6 15.9 8.6 13.4 Z" fill="#F8ECDA" stroke="#1F1A14" stroke-width="0.8"/>
  <path d="M10.2 14.6 H14.2 L15.1 13.9 L16 13.9" stroke="#1F1A14" stroke-width="0.8" stroke-linecap="round" stroke-linejoin="round"/>
  <path d="M21.8 14.6 H17.8 L16.9 13.9 L16 13.9" stroke="#1F1A14" stroke-width="0.8" stroke-linecap="round" stroke-linejoin="round"/>
  <path d="M11.2 14.6 C11.8 13.3 13 12.9 14.2 13.2 C14.8 13.4 15.2 13.9 15.2 14.6 C15.2 15.4 14.6 16 13.8 16 H12.2 C11.4 16 10.8 15.4 11.2 14.6 Z" fill="#2F8F83" fill-opacity="0.15"/>
  <path d="M20.8 14.6 C21.2 15.4 20.6 16 19.8 16 H18.2 C17.4 16 16.8 15.4 16.8 14.6 C16.8 13.9 17.2 13.4 17.8 13.2 C19 12.9 20.2 13.3 20.8 14.6 Z" fill="#2F8F83" fill-opacity="0.15"/>
  <path d="M11.2 22.3 C11.2 19.8 13.2 18.1 16 18.1 C18.8 18.1 20.8 19.8 20.8 22.3" stroke="#1F1A14" stroke-width="0.8" fill="none" stroke-linecap="round"/>
  <path d="M10.8 24.1 C12.4 22.9 14.1 22.3 16 22.3 C17.9 22.3 19.6 22.9 21.2 24.1" stroke="#463E35" stroke-width="0.8" fill="none" stroke-linecap="round"/>
</svg>
